# xmcd
#
# Track frame offsets:
#	150
#	11068
#	18082
#	30931
#	38304
#	49564
#	61869
#	75059
#	89498
#	104120
#	115952
#	128604
#	140544
#	157701
#	170467
#	184602
#	194122
#	206947
#	216364
#	223476
#	233013
#	244526
#	259134
#
# Disc length: 3630 seconds
#
# Revision: 0
# Processed by: cddbd v1.4PL0 Copyright (c) Steve Scherf et al.
# Submitted via: audiograbber 1.81.01
#
DISCID=340e2c17
DTITLE=Hannes Wader - Der Volkssänger CD2
DYEAR=1900
DGENRE=Folk
TTITLE0=Wie schön blüht uns der Maien
TTITLE1=Das Notabene
TTITLE2=Wo soll ich mich hinwende
TTITLE3=Der Kuckuck
TTITLE4=Die freie Republik
TTITLE5=So trolln wir uns
TTITLE6=Das Bürgerlied
TTITLE7=Wilde Schwäne
TTITLE8=König von Preussen
TTITLE9=Weile an dieser Quelle
TTITLE10=Der Winter ist vergangen
TTITLE11=Freifrau von Droste-Vischering
TTITLE12=Bollmann
TTITLE13=Als ich gestern einsam ging
TTITLE14=Ännchen von Tharau
TTITLE15=Bunt sind schon die Wälder
TTITLE16=Die Reise nach Jütland
TTITLE17=Jetzt kommen die lustigen Tage
TTITLE18=Kein Feuer, keine Kohle
TTITLE19=Und in dem Schneegebirge
TTITLE20=Wenn alle Brünnlein fliessen
TTITLE21=Morgen muß ich fort
TTITLE22=Ade zur guten Nacht
EXTD=
EXTT0=
EXTT1=
EXTT2=
EXTT3=
EXTT4=
EXTT5=
EXTT6=
EXTT7=
EXTT8=
EXTT9=
EXTT10=
EXTT11=
EXTT12=
EXTT13=
EXTT14=
EXTT15=
EXTT16=
EXTT17=
EXTT18=
EXTT19=
EXTT20=
EXTT21=
EXTT22=
PLAYORDER=
